<svg xmlns="http://www.w3.org/2000/svg" viewBox="0 0 1947 375" role="img" aria-labelledby="title">
<title id="title">IMVO Systems</title>
<path fill="currentColor" fill-rule="evenodd" d="M 1848 199 L 1841 202 L 1836 207 L 1833 215 L 1833 224 L 1835 230 L 1840 236 L 1843 238 L 1852 240 L 1853 239 L 1857 239 L 1865 234 L 1869 227 L 1870 216 L 1868 209 L 1862 202 L 1855 199 Z M 1312 199 L 1306 201 L 1299 208 L 1297 213 L 1297 226 L 1300 232 L 1305 237 L 1309 239 L 1316 240 L 1325 237 L 1330 232 L 1333 226 L 1333 213 L 1331 208 L 1324 201 L 1318 199 Z M 1067 199 L 1060 202 L 1055 207 L 1052 215 L 1052 224 L 1054 230 L 1059 236 L 1062 238 L 1071 240 L 1072 239 L 1076 239 L 1084 234 L 1088 227 L 1089 215 L 1087 209 L 1081 202 L 1074 199 Z M 1284 112 L 1255 112 L 1252 122 L 1245 138 L 1244 143 L 1237 159 L 1236 164 L 1234 167 L 1231 177 L 1224 193 L 1221 188 L 1220 183 L 1216 175 L 1215 170 L 1211 162 L 1210 157 L 1208 154 L 1207 149 L 1203 141 L 1202 136 L 1198 128 L 1193 113 L 1192 112 L 1163 112 L 1161 115 L 1198 212 L 1216 212 L 1217 213 L 1214 219 L 1213 224 L 1210 229 L 1210 231 L 1205 239 L 1198 246 L 1191 250 L 1176 252 L 1174 254 L 1174 282 L 1177 285 L 1195 283 L 1212 276 L 1226 263 L 1233 253 L 1241 236 L 1242 231 L 1251 210 L 1252 205 L 1254 202 L 1255 197 L 1264 176 L 1273 150 L 1277 142 L 1281 129 L 1285 121 L 1286 114 Z M 1849 119 L 1839 130 L 1835 138 L 1835 141 L 1833 146 L 1833 160 L 1836 170 L 1840 177 L 1856 192 L 1866 197 L 1868 199 L 1874 201 L 1889 209 L 1899 216 L 1907 225 L 1909 231 L 1909 235 L 1911 237 L 1936 237 L 1939 234 L 1939 227 L 1938 226 L 1937 218 L 1932 207 L 1926 199 L 1919 192 L 1908 184 L 1884 172 L 1871 164 L 1866 160 L 1863 155 L 1863 150 L 1868 144 L 1875 141 L 1887 141 L 1894 144 L 1900 150 L 1902 155 L 1902 158 L 1905 161 L 1929 161 L 1932 158 L 1932 151 L 1931 150 L 1931 146 L 1929 139 L 1923 128 L 1910 116 L 1895 110 L 1889 110 L 1888 109 L 1876 109 L 1875 110 L 1865 111 Z M 1637 135 L 1631 150 L 1630 162 L 1629 163 L 1629 234 L 1632 237 L 1657 237 L 1659 235 L 1659 167 L 1660 166 L 1660 159 L 1664 151 L 1669 146 L 1674 143 L 1677 143 L 1678 142 L 1687 142 L 1695 145 L 1702 152 L 1705 159 L 1705 164 L 1706 165 L 1706 235 L 1708 237 L 1733 237 L 1736 234 L 1736 160 L 1741 150 L 1748 144 L 1754 142 L 1764 142 L 1771 145 L 1776 149 L 1781 158 L 1781 161 L 1782 162 L 1782 234 L 1785 237 L 1809 237 L 1812 234 L 1812 159 L 1811 158 L 1811 153 L 1807 140 L 1802 131 L 1793 121 L 1786 116 L 1771 110 L 1753 109 L 1752 110 L 1747 110 L 1740 112 L 1732 116 L 1720 125 L 1714 119 L 1704 113 L 1695 110 L 1690 110 L 1689 109 L 1677 109 L 1676 110 L 1671 110 L 1664 112 L 1654 117 L 1641 129 Z M 1546 109 L 1545 110 L 1536 111 L 1522 117 L 1514 123 L 1506 132 L 1498 147 L 1495 157 L 1495 162 L 1494 163 L 1494 186 L 1495 187 L 1495 192 L 1498 202 L 1504 214 L 1518 229 L 1531 236 L 1537 238 L 1554 240 L 1555 239 L 1563 239 L 1564 238 L 1568 238 L 1574 236 L 1589 227 L 1596 220 L 1601 213 L 1607 200 L 1607 195 L 1605 193 L 1576 193 L 1574 197 L 1567 203 L 1560 206 L 1549 207 L 1537 203 L 1529 195 L 1525 186 L 1526 185 L 1609 185 L 1611 178 L 1611 170 L 1610 169 L 1609 156 L 1605 144 L 1599 133 L 1588 121 L 1584 118 L 1569 111 L 1559 110 L 1558 109 Z M 1527 157 L 1531 151 L 1540 144 L 1547 142 L 1557 142 L 1564 144 L 1570 148 L 1574 152 L 1577 158 L 1576 159 L 1528 159 Z M 1314 118 L 1302 131 L 1297 144 L 1297 162 L 1300 171 L 1306 180 L 1317 190 L 1328 197 L 1349 207 L 1366 219 L 1370 224 L 1372 228 L 1372 234 L 1375 237 L 1400 237 L 1403 234 L 1402 232 L 1401 219 L 1395 206 L 1392 202 L 1376 187 L 1370 183 L 1361 179 L 1359 177 L 1339 167 L 1333 163 L 1327 156 L 1327 149 L 1333 143 L 1338 141 L 1351 141 L 1358 144 L 1363 149 L 1365 153 L 1365 158 L 1368 161 L 1393 161 L 1396 158 L 1394 143 L 1386 127 L 1378 119 L 1370 114 L 1368 114 L 1362 111 L 1353 110 L 1352 109 L 1333 110 L 1323 113 Z M 1068 119 L 1058 130 L 1055 136 L 1052 146 L 1052 159 L 1053 160 L 1053 164 L 1059 177 L 1075 192 L 1085 197 L 1087 199 L 1093 201 L 1108 209 L 1118 216 L 1126 225 L 1128 231 L 1128 235 L 1130 237 L 1155 237 L 1158 234 L 1157 222 L 1155 215 L 1146 200 L 1138 192 L 1127 184 L 1103 172 L 1090 164 L 1085 160 L 1082 155 L 1082 150 L 1087 144 L 1094 141 L 1106 141 L 1113 144 L 1119 150 L 1121 155 L 1121 158 L 1124 161 L 1148 161 L 1151 158 L 1151 151 L 1150 150 L 1150 146 L 1148 139 L 1142 128 L 1129 116 L 1114 110 L 1108 110 L 1107 109 L 1095 109 L 1094 110 L 1084 111 Z M 1427 79 L 1425 81 L 1425 110 L 1423 112 L 1413 112 L 1411 114 L 1411 142 L 1414 145 L 1424 145 L 1425 146 L 1425 194 L 1426 195 L 1426 199 L 1433 216 L 1442 227 L 1447 231 L 1459 237 L 1477 240 L 1481 236 L 1481 210 L 1478 207 L 1470 206 L 1462 202 L 1456 193 L 1456 190 L 1455 189 L 1455 146 L 1456 145 L 1477 145 L 1481 141 L 1481 115 L 1478 112 L 1456 112 L 1455 111 L 1455 82 L 1452 79 Z M 11 31 L 11 51 L 10 52 L 10 317 L 83 317 L 84 316 L 84 71 L 85 70 L 85 31 Z M 726 30 L 662 30 L 660 39 L 658 43 L 657 50 L 655 54 L 654 61 L 652 65 L 651 72 L 649 76 L 647 87 L 645 91 L 644 98 L 642 102 L 641 109 L 639 113 L 638 120 L 636 124 L 635 131 L 633 135 L 628 157 L 626 161 L 625 168 L 623 172 L 622 179 L 620 183 L 615 205 L 613 209 L 612 216 L 610 220 L 609 227 L 606 235 L 604 232 L 604 229 L 603 228 L 603 225 L 602 224 L 602 221 L 601 220 L 601 217 L 600 216 L 600 213 L 599 212 L 599 209 L 598 208 L 598 205 L 597 204 L 597 201 L 596 200 L 579 129 L 577 125 L 577 122 L 576 121 L 576 118 L 575 117 L 575 114 L 574 113 L 574 110 L 573 109 L 573 106 L 572 105 L 572 102 L 571 101 L 571 98 L 570 97 L 570 94 L 569 93 L 569 90 L 568 89 L 568 86 L 567 85 L 567 82 L 566 81 L 566 78 L 565 77 L 554 31 L 483 31 L 489 49 L 489 52 L 493 62 L 493 65 L 496 72 L 496 75 L 500 85 L 500 88 L 504 98 L 504 101 L 508 111 L 508 114 L 512 124 L 512 127 L 516 137 L 519 150 L 523 160 L 523 163 L 527 173 L 527 176 L 531 186 L 531 189 L 535 199 L 538 212 L 542 222 L 542 225 L 546 235 L 546 238 L 550 248 L 550 251 L 554 261 L 554 264 L 558 274 L 561 287 L 571 317 L 647 317 L 648 316 L 653 295 L 657 284 L 658 277 L 660 273 L 661 266 L 663 262 L 664 255 L 671 233 L 672 226 L 679 204 L 680 197 L 682 193 L 683 186 L 690 164 L 691 157 L 698 135 L 699 128 L 701 124 L 702 117 L 709 95 L 710 88 L 717 66 L 718 59 L 722 48 Z M 457 31 L 355 30 L 351 47 L 349 51 L 347 62 L 345 66 L 344 73 L 342 77 L 341 84 L 339 88 L 338 95 L 336 99 L 334 110 L 332 114 L 331 121 L 329 125 L 328 132 L 326 136 L 324 147 L 322 151 L 321 158 L 316 173 L 314 184 L 312 188 L 311 195 L 309 199 L 308 206 L 303 221 L 301 232 L 299 234 L 297 230 L 287 187 L 285 183 L 285 180 L 284 179 L 284 176 L 283 175 L 283 172 L 282 171 L 282 168 L 281 167 L 281 164 L 280 163 L 280 160 L 279 159 L 279 156 L 278 155 L 278 152 L 277 151 L 277 148 L 276 147 L 276 144 L 275 143 L 268 112 L 266 108 L 266 105 L 265 104 L 265 101 L 264 100 L 264 97 L 263 96 L 263 93 L 262 92 L 262 89 L 261 88 L 261 85 L 260 84 L 260 81 L 259 80 L 259 77 L 258 76 L 258 73 L 257 72 L 257 69 L 256 68 L 256 65 L 255 64 L 255 61 L 254 60 L 254 57 L 253 56 L 253 53 L 252 52 L 247 31 L 144 31 L 144 317 L 218 317 L 218 172 L 219 171 L 264 317 L 340 317 L 346 299 L 347 292 L 351 281 L 355 263 L 359 252 L 363 234 L 365 230 L 365 227 L 367 223 L 371 205 L 373 201 L 373 198 L 375 194 L 376 187 L 378 183 L 379 176 L 382 168 L 383 169 L 383 317 L 457 317 Z M 825 28 L 805 34 L 789 42 L 777 51 L 769 59 L 762 68 L 749 92 L 743 110 L 741 123 L 740 124 L 739 136 L 738 137 L 738 145 L 737 146 L 737 161 L 736 162 L 737 204 L 738 205 L 738 213 L 739 214 L 741 232 L 742 233 L 744 244 L 750 261 L 756 273 L 764 285 L 778 299 L 796 310 L 821 318 L 832 319 L 833 320 L 844 320 L 845 321 L 878 320 L 879 319 L 886 319 L 887 318 L 892 318 L 897 316 L 901 316 L 916 311 L 928 305 L 938 298 L 950 286 L 962 266 L 969 246 L 970 238 L 972 233 L 973 222 L 974 221 L 974 214 L 975 213 L 976 178 L 977 177 L 975 137 L 974 136 L 973 124 L 972 123 L 972 119 L 971 118 L 969 107 L 964 92 L 951 68 L 939 54 L 928 45 L 918 39 L 898 31 L 895 31 L 886 28 L 874 27 L 873 26 L 837 26 L 836 27 Z M 845 90 L 865 90 L 866 91 L 870 91 L 876 93 L 884 98 L 890 104 L 895 112 L 895 114 L 898 120 L 899 128 L 900 129 L 900 134 L 901 135 L 901 147 L 902 148 L 902 199 L 901 200 L 901 211 L 900 212 L 900 217 L 899 218 L 898 226 L 893 238 L 889 244 L 882 251 L 871 257 L 862 258 L 861 259 L 851 259 L 850 258 L 846 258 L 840 256 L 835 253 L 827 245 L 821 235 L 818 226 L 818 223 L 816 218 L 816 213 L 815 212 L 815 204 L 814 203 L 814 143 L 815 142 L 815 133 L 816 132 L 816 127 L 817 126 L 818 119 L 820 113 L 827 101 L 835 94 Z M 1011 10 L 1011 364 L 1016 364 L 1016 10 Z"/>
</svg>